<svg xmlns="http://www.w3.org/2000/svg" width="32" height="32" viewBox="0 0 32 32" role="img" aria-labelledby="title">
  <title id="title">Swift Nexus Favicon</title>
  <defs>
    <linearGradient id="g" x1="0" y1="0" x2="1" y2="1">
      <stop offset="0%" stop-color="#10B981"/>
      <stop offset="100%" stop-color="#34D399"/>
    </linearGradient>
  </defs>
  <rect width="32" height="32" rx="8" fill="url(#g)"/>
  <g fill="#0B0F1A">
    <path d="M9.2 22.5c-.8 0-1.2-.5-1.2-1.3v-1.9c0-3.9 2.5-6.3 6.2-6.3 1.6 0 3 .5 4 .9.6.3.8 1 .6 1.6-.3.7-1.1 1-1.8.7-.9-.4-1.9-.7-2.9-.7-2.1 0-3.4 1.2-3.4 3.7v1.9c0 .8-.4 1.4-1.5 1.4z"/>
    <path d="M22.9 22.5c-2.8 0-4.8-1.9-4.8-4.8s2-4.8 4.8-4.8 4.8 1.9 4.8 4.8-2 4.8-4.8 4.8zm0-2.6c1.3 0 2.2-1 2.2-2.2s-.9-2.2-2.2-2.2-2.2 1-2.2 2.2.9 2.2 2.2 2.2z"/>
  </g>
</svg>

